<svg width="1920" height="1080" viewBox="0 0 1920 1080" fill="none" xmlns="http://www.w3.org/2000/svg">
<g clip-path="url(#clip0_2922_5057)">
<rect width="1920" height="1080" fill="#EAF5FA"/>
<path d="M328.304 314.977C328.304 314.977 328.25 314.977 328.224 314.977C324.023 314.765 319.771 314.343 315.624 313.709C314.884 313.603 314.355 312.89 314.46 312.15C314.566 311.41 315.28 310.882 316.02 310.988C320.088 311.595 324.236 312.018 328.357 312.229C329.123 312.256 329.703 312.916 329.651 313.682C329.624 314.422 329.016 314.977 328.277 314.977H328.304ZM340.825 314.977C340.085 314.977 339.478 314.395 339.451 313.682C339.425 312.916 340.007 312.282 340.746 312.229C344.868 312.018 349.015 311.595 353.083 310.988C353.823 310.882 354.536 311.384 354.642 312.15C354.747 312.89 354.245 313.603 353.479 313.709C349.332 314.343 345.078 314.765 340.878 314.977C340.878 314.977 340.826 314.977 340.799 314.977H340.825ZM303.55 311.225C303.55 311.225 303.313 311.225 303.207 311.172C299.139 310.116 295.07 308.848 291.107 307.395C290.394 307.131 290.024 306.338 290.288 305.625C290.553 304.911 291.345 304.542 292.058 304.806C295.915 306.232 299.904 307.474 303.893 308.504C304.633 308.689 305.082 309.455 304.871 310.169C304.712 310.776 304.158 311.199 303.55 311.199V311.225ZM365.553 311.199C364.945 311.199 364.391 310.776 364.232 310.169C364.047 309.429 364.495 308.689 365.209 308.504C369.198 307.474 373.161 306.232 377.018 304.806C377.731 304.542 378.524 304.911 378.788 305.625C379.052 306.338 378.682 307.131 377.969 307.395C374.032 308.848 369.964 310.142 365.869 311.199C365.763 311.225 365.632 311.252 365.526 311.252L365.553 311.199ZM280.064 302.56C279.853 302.56 279.642 302.507 279.457 302.428C275.679 300.579 271.954 298.518 268.388 296.273C267.754 295.877 267.543 295.031 267.939 294.371C268.335 293.737 269.181 293.525 269.842 293.922C273.329 296.114 276.973 298.122 280.672 299.945C281.359 300.288 281.624 301.107 281.307 301.794C281.069 302.27 280.566 302.56 280.064 302.56ZM389.012 302.507C388.51 302.507 388.007 302.217 387.77 301.741C387.426 301.054 387.717 300.235 388.404 299.892C392.103 298.069 395.749 296.061 399.236 293.869C399.87 293.473 400.714 293.658 401.137 294.318C401.533 294.952 401.349 295.797 400.688 296.22C397.122 298.466 393.397 300.526 389.619 302.375C389.434 302.481 389.223 302.507 389.012 302.507ZM258.799 289.325C258.508 289.325 258.218 289.219 257.954 289.034C254.625 286.472 251.402 283.672 248.337 280.792C247.782 280.264 247.756 279.392 248.284 278.837C248.813 278.282 249.685 278.256 250.24 278.784C253.225 281.611 256.394 284.332 259.643 286.842C260.251 287.317 260.358 288.163 259.882 288.77C259.618 289.114 259.195 289.299 258.799 289.299V289.325ZM410.225 289.246C409.802 289.246 409.407 289.061 409.142 288.717C408.667 288.11 408.799 287.264 409.38 286.789C412.629 284.253 415.799 281.558 418.785 278.705C419.339 278.177 420.21 278.203 420.739 278.758C421.267 279.313 421.241 280.184 420.686 280.713C417.648 283.619 414.399 286.393 411.071 288.982C410.833 289.166 410.515 289.272 410.225 289.272V289.246ZM240.649 272.101C240.253 272.101 239.884 271.942 239.62 271.625C236.872 268.429 234.256 265.073 231.852 261.613C231.429 260.979 231.562 260.133 232.196 259.711C232.83 259.288 233.675 259.42 234.098 260.054C236.449 263.436 239.011 266.711 241.706 269.855C242.208 270.436 242.13 271.308 241.548 271.784C241.284 271.995 240.966 272.127 240.649 272.127V272.101ZM428.348 271.995C428.031 271.995 427.713 271.889 427.449 271.651C426.868 271.15 426.815 270.278 427.29 269.723C429.985 266.606 432.521 263.303 434.873 259.922C435.295 259.288 436.168 259.156 436.775 259.579C437.409 260.001 437.541 260.873 437.118 261.481C434.714 264.941 432.099 268.296 429.352 271.493C429.088 271.81 428.692 271.968 428.295 271.968L428.348 271.995ZM226.305 251.574C225.83 251.574 225.354 251.31 225.09 250.861C223.03 247.189 221.154 243.358 219.489 239.501C219.199 238.814 219.489 237.995 220.203 237.705C220.916 237.414 221.708 237.705 221.998 238.418C223.636 242.196 225.46 245.921 227.468 249.54C227.837 250.2 227.599 251.046 226.939 251.415C226.727 251.521 226.49 251.6 226.278 251.6L226.305 251.574ZM442.666 251.468C442.429 251.468 442.217 251.416 442.006 251.283C441.345 250.914 441.107 250.068 441.477 249.408C443.485 245.815 445.308 242.064 446.946 238.286C447.237 237.599 448.055 237.256 448.742 237.573C449.429 237.863 449.772 238.682 449.455 239.369C447.791 243.226 445.916 247.057 443.881 250.755C443.617 251.204 443.168 251.468 442.666 251.468ZM216.424 228.591C215.843 228.591 215.288 228.221 215.104 227.64C213.835 223.624 212.78 219.503 211.934 215.382C211.776 214.642 212.25 213.902 213.016 213.77C213.756 213.612 214.495 214.087 214.628 214.853C215.447 218.895 216.504 222.911 217.745 226.847C217.983 227.56 217.561 228.353 216.848 228.564C216.715 228.617 216.583 228.617 216.424 228.617V228.591ZM452.546 228.458C452.414 228.458 452.283 228.458 452.124 228.406C451.411 228.168 450.987 227.402 451.225 226.689C452.467 222.752 453.498 218.737 454.317 214.695C454.475 213.955 455.188 213.48 455.928 213.612C456.668 213.77 457.142 214.484 457.01 215.223C456.165 219.344 455.109 223.466 453.841 227.481C453.656 228.062 453.128 228.432 452.52 228.432L452.546 228.458ZM211.378 204.075C210.691 204.075 210.084 203.547 210.004 202.833C209.582 198.659 209.371 194.406 209.371 190.179C209.371 189.413 209.979 188.805 210.745 188.805C211.511 188.805 212.119 189.413 212.119 190.179C212.119 194.3 212.329 198.474 212.752 202.543C212.831 203.309 212.277 203.969 211.511 204.048C211.458 204.048 211.405 204.048 211.378 204.048V204.075ZM457.566 203.943C457.566 203.943 457.486 203.943 457.433 203.943C456.667 203.864 456.14 203.203 456.193 202.437C456.615 198.342 456.8 194.195 456.8 190.073V189.809C456.8 189.043 457.408 188.436 458.174 188.436C458.94 188.436 459.548 189.043 459.548 189.809V190.1C459.548 194.327 459.336 198.58 458.913 202.754C458.834 203.467 458.253 203.996 457.539 203.996L457.566 203.943ZM211.352 179.057C211.352 179.057 211.274 179.057 211.221 179.057C210.455 178.978 209.926 178.318 209.979 177.551C210.401 173.351 211.035 169.151 211.854 165.03C212.013 164.29 212.726 163.814 213.465 163.946C214.205 164.105 214.681 164.818 214.549 165.558C213.73 169.573 213.122 173.695 212.699 177.816C212.62 178.529 212.039 179.057 211.325 179.057H211.352ZM457.539 178.635C456.852 178.635 456.245 178.106 456.165 177.393C455.743 173.298 455.109 169.177 454.29 165.162C454.131 164.422 454.607 163.682 455.346 163.55C456.086 163.392 456.827 163.867 456.959 164.607C457.804 168.728 458.465 172.928 458.887 177.129C458.966 177.895 458.41 178.555 457.671 178.635C457.618 178.635 457.566 178.635 457.539 178.635ZM216.346 154.515C216.214 154.515 216.081 154.515 215.923 154.462C215.209 154.225 214.787 153.459 215.025 152.745C216.266 148.73 217.745 144.741 219.409 140.857C219.7 140.17 220.519 139.827 221.206 140.144C221.893 140.435 222.237 141.253 221.92 141.94C220.308 145.718 218.855 149.628 217.64 153.564C217.455 154.145 216.926 154.542 216.319 154.542L216.346 154.515ZM452.467 154.119C451.886 154.119 451.331 153.749 451.146 153.168C449.905 149.232 448.451 145.348 446.813 141.571C446.523 140.884 446.814 140.065 447.527 139.774C448.214 139.484 449.033 139.774 449.324 140.487C450.988 144.344 452.493 148.36 453.761 152.349C453.999 153.062 453.577 153.855 452.863 154.066C452.731 154.119 452.572 154.119 452.44 154.119H452.467ZM226.2 131.505C225.962 131.505 225.75 131.453 225.539 131.32C224.879 130.951 224.64 130.105 225.01 129.445C227.044 125.773 229.316 122.153 231.72 118.693C232.143 118.059 233.015 117.927 233.623 118.349C234.257 118.772 234.389 119.644 233.966 120.251C231.615 123.633 229.422 127.173 227.415 130.766C227.177 131.215 226.701 131.479 226.2 131.479V131.505ZM442.561 131.162C442.085 131.162 441.609 130.898 441.371 130.449C439.364 126.856 437.145 123.316 434.794 119.961C434.371 119.327 434.503 118.481 435.137 118.059C435.771 117.636 436.617 117.768 437.04 118.402C439.444 121.863 441.715 125.456 443.776 129.128C444.146 129.788 443.907 130.634 443.247 131.003C443.035 131.109 442.798 131.188 442.586 131.188L442.561 131.162ZM240.491 110.952C240.174 110.952 239.857 110.847 239.593 110.609C239.012 110.107 238.959 109.235 239.434 108.68C242.182 105.484 245.115 102.393 248.153 99.4871C248.708 98.9587 249.579 98.9851 250.107 99.5399C250.635 100.095 250.609 100.966 250.054 101.495C247.069 104.348 244.216 107.36 241.521 110.477C241.257 110.794 240.861 110.952 240.465 110.952H240.491ZM428.215 110.635C427.819 110.635 427.45 110.477 427.186 110.16C424.491 107.042 421.611 104.031 418.626 101.204C418.071 100.676 418.045 99.8041 418.573 99.2493C419.101 98.6946 419.974 98.6681 420.529 99.1964C423.593 102.102 426.524 105.167 429.272 108.363C429.774 108.945 429.695 109.816 429.14 110.292C428.876 110.503 428.559 110.635 428.242 110.635H428.215ZM258.614 93.6751C258.191 93.6751 257.795 93.4902 257.531 93.1468C257.055 92.5392 257.16 91.6938 257.768 91.2183C261.097 88.6294 264.584 86.1989 268.151 83.9534C268.785 83.5572 269.631 83.7421 270.053 84.3761C270.449 85.0102 270.264 85.8555 269.63 86.2782C266.143 88.4709 262.736 90.8485 259.486 93.3846C259.248 93.5695 258.931 93.6751 258.64 93.6751H258.614ZM410.04 93.4374C409.75 93.4374 409.459 93.3317 409.195 93.1468C405.946 90.6371 402.511 88.2595 399.024 86.0668C398.39 85.6706 398.179 84.8252 398.575 84.1647C398.972 83.5307 399.816 83.3194 400.477 83.7157C404.043 85.9348 407.556 88.3652 410.885 90.9541C411.493 91.4296 411.599 92.275 411.124 92.8826C410.86 93.2261 410.436 93.411 410.04 93.411V93.4374ZM279.827 80.387C279.325 80.387 278.824 80.0964 278.586 79.6209C278.243 78.934 278.533 78.1151 279.219 77.7717C282.997 75.896 286.907 74.2316 290.843 72.7523C291.556 72.4881 292.349 72.858 292.613 73.5713C292.877 74.2846 292.508 75.077 291.795 75.3412C287.938 76.7678 284.107 78.4321 280.409 80.255C280.224 80.3606 280.013 80.387 279.801 80.387H279.827ZM388.774 80.2021C388.563 80.2021 388.378 80.1493 388.167 80.07C384.468 78.2736 380.638 76.6093 376.781 75.2092C376.067 74.945 375.697 74.1524 375.962 73.4391C376.226 72.7259 377.018 72.356 377.731 72.6202C381.668 74.0732 385.604 75.7375 389.382 77.6132C390.069 77.9566 390.359 78.7755 390.015 79.4624C389.778 79.9379 389.276 80.2285 388.774 80.2285V80.2021ZM303.286 71.6428C302.678 71.6428 302.123 71.22 301.965 70.6124C301.78 69.8727 302.203 69.1331 302.943 68.9482C307.011 67.8915 311.185 67.0197 315.359 66.3856C316.099 66.28 316.812 66.7819 316.918 67.548C317.023 68.2877 316.522 69.001 315.755 69.1067C311.687 69.7407 307.593 70.586 303.63 71.6163C303.524 71.6427 303.391 71.6692 303.286 71.6692V71.6428ZM365.289 71.5371C365.289 71.5371 365.051 71.5371 364.946 71.4843C360.956 70.454 356.888 69.635 352.793 69.0274C352.053 68.9218 351.525 68.2084 351.631 67.4687C351.737 66.729 352.449 66.2007 353.189 66.3064C357.363 66.9404 361.538 67.7857 365.606 68.816C366.346 69.001 366.794 69.7407 366.582 70.4804C366.424 71.088 365.869 71.5107 365.262 71.5107L365.289 71.5371ZM328.014 67.8386C327.274 67.8386 326.693 67.2574 326.64 66.5441C326.613 65.778 327.194 65.144 327.934 65.0911C332.134 64.8798 336.414 64.8798 340.615 65.0911C341.381 65.1175 341.962 65.778 341.909 66.5177C341.882 67.2838 341.222 67.865 340.482 67.8121C336.387 67.6008 332.187 67.6272 328.092 67.8121C328.092 67.8121 328.04 67.8121 328.014 67.8121V67.8386Z" fill="#BDDFF0"/>
<path d="M374.859 188.977C374.7 184.51 373.836 180.07 372.327 175.814L381.868 165.516L374.821 154.848L362.4 159.944C362.167 159.707 361.964 159.452 361.726 159.222C358.417 156.015 354.724 153.506 350.831 151.631L350.949 138.035L338.788 135.192L333.172 147.634C328.544 147.659 323.946 148.501 319.573 150.137L310.623 140.972L300.247 148.037L304.686 160.025C304.465 160.259 304.225 160.461 304.01 160.701C300.944 164.092 298.572 167.895 296.821 171.922L283.752 172.838L281.943 185.579L293.287 189.98C293.387 194.893 294.32 199.787 296.053 204.445L286.926 214.817L294.119 225.38L306.113 220.085C306.221 220.193 306.311 220.309 306.421 220.414C309.676 223.567 313.296 226.051 317.117 227.917L318.232 242.787L330.561 244.681L335.034 232.006C339.729 231.973 344.392 231.094 348.822 229.405L358.94 238.803L369.051 231.34L363.883 219.191C363.965 219.104 364.055 219.028 364.134 218.938C367.305 215.427 369.729 211.475 371.495 207.293L384.535 207.259L387.003 194.642L374.863 188.983L374.859 188.977ZM355.122 209.889C344.6 221.53 326.674 221.928 315.161 210.775C303.648 199.621 302.841 181.076 313.36 169.435C323.883 157.794 341.808 157.399 353.322 168.553C364.835 179.706 365.645 198.252 355.122 209.893L355.122 209.889Z" fill="#BDDFF0"/>
<path d="M71.9345 53.9028C70.8425 53.9028 69.9473 54.7976 69.9473 55.8891V87.6764C69.9473 88.7678 70.8425 89.6626 71.9345 89.6626C73.0265 89.6626 73.9218 88.7678 73.9218 87.6764V55.8891C73.9218 54.7976 73.0265 53.9028 71.9345 53.9028Z" fill="#BDDFF0"/>
<path d="M89.8231 71.7826C89.8231 70.6912 88.9279 69.7964 87.8358 69.7964H56.0322C54.9402 69.7964 54.0449 70.6912 54.0449 71.7826C54.0449 72.8741 54.9402 73.7688 56.0322 73.7688H87.8358C88.9279 73.7688 89.8231 72.8741 89.8231 71.7826Z" fill="#BDDFF0"/>
<path d="M129.442 435C128.25 435 127.273 435.976 127.273 437.167V471.852C127.273 473.043 128.25 474.019 129.442 474.019C130.633 474.019 131.61 473.043 131.61 471.852V437.167C131.61 435.976 130.633 435 129.442 435Z" fill="#BDDFF0"/>
<path d="M148.961 454.51C148.961 453.319 147.985 452.342 146.793 452.342H112.09C110.899 452.342 109.922 453.319 109.922 454.51C109.922 455.701 110.899 456.677 112.09 456.677H146.793C147.985 456.677 148.961 455.701 148.961 454.51Z" fill="#BDDFF0"/>
<path d="M73.9204 989.493C72.7288 989.493 71.752 990.47 71.752 991.66V1026.35C71.752 1027.54 72.7288 1028.51 73.9204 1028.51C75.1119 1028.51 76.0888 1027.54 76.0888 1026.35V991.66C76.0888 990.47 75.1119 989.493 73.9204 989.493Z" fill="#BDDFF0"/>
<path d="M93.4399 1009C93.4399 1007.81 92.4631 1006.84 91.2715 1006.84H56.5688C55.3772 1006.84 54.4004 1007.81 54.4004 1009C54.4004 1010.19 55.3772 1011.17 56.5688 1011.17H91.2715C92.4631 1011.17 93.4399 1010.19 93.4399 1009Z" fill="#BDDFF0"/>
<path d="M257.975 743.618C256.74 743.618 255.729 744.629 255.729 745.863V781.792C255.729 783.025 256.74 784.037 257.975 784.037C259.209 784.037 260.221 783.025 260.221 781.792V745.863C260.221 744.629 259.209 743.618 257.975 743.618Z" fill="#BDDFF0"/>
<path d="M278.194 763.827C278.194 762.593 277.182 761.582 275.947 761.582H240C238.766 761.582 237.754 762.593 237.754 763.827C237.754 765.061 238.766 766.072 240 766.072H275.947C277.182 766.072 278.194 765.061 278.194 763.827Z" fill="#BDDFF0"/>
<path d="M481.629 945.35C480.281 945.35 479.176 946.454 479.176 947.801V987.041C479.176 988.388 480.281 989.493 481.629 989.493C482.977 989.493 484.082 988.388 484.082 987.041V947.801C484.082 946.454 482.977 945.35 481.629 945.35Z" fill="#BDDFF0"/>
<path d="M503.713 967.421C503.713 966.074 502.608 964.969 501.26 964.969H462C460.652 964.969 459.547 966.074 459.547 967.421C459.547 968.768 460.652 969.873 462 969.873H501.26C502.608 969.873 503.713 968.768 503.713 967.421Z" fill="#BDDFF0"/>
<path d="M1689.18 880.907C1688.11 880.907 1687.24 881.781 1687.24 882.846V913.878C1687.24 914.943 1688.11 915.817 1689.18 915.817C1690.25 915.817 1691.12 914.943 1691.12 913.878V882.846C1691.12 881.781 1690.25 880.907 1689.18 880.907Z" fill="#BDDFF0"/>
<path d="M1706.64 898.362C1706.64 897.296 1705.77 896.423 1704.7 896.423H1673.66C1672.59 896.423 1671.72 897.296 1671.72 898.362C1671.72 899.427 1672.59 900.301 1673.66 900.301H1704.7C1705.77 900.301 1706.64 899.427 1706.64 898.362Z" fill="#BDDFF0"/>
<path d="M684.001 64.9326C682.906 64.9326 682.008 65.8299 682.008 66.9244V98.8007C682.008 99.8952 682.906 100.792 684.001 100.792C685.096 100.792 685.993 99.8952 685.993 98.8007V66.9244C685.993 65.8299 685.096 64.9326 684.001 64.9326Z" fill="#BDDFF0"/>
<path d="M701.939 82.8624C701.939 81.7679 701.041 80.8706 699.946 80.8706H668.053C666.958 80.8706 666.061 81.7679 666.061 82.8624C666.061 83.9569 666.958 84.8542 668.053 84.8542H699.946C701.041 84.8542 701.939 83.9569 701.939 82.8624Z" fill="#BDDFF0"/>
<path d="M1178.99 117.48C1178.12 117.48 1177.41 118.189 1177.41 119.053V144.225C1177.41 145.09 1178.12 145.798 1178.99 145.798C1179.85 145.798 1180.56 145.09 1180.56 144.225V119.053C1180.56 118.189 1179.85 117.48 1178.99 117.48Z" fill="#BDDFF0"/>
<path d="M1193.15 131.639C1193.15 130.775 1192.45 130.066 1191.58 130.066H1166.4C1165.53 130.066 1164.82 130.775 1164.82 131.639C1164.82 132.504 1165.53 133.212 1166.4 133.212H1191.58C1192.45 133.212 1193.15 132.504 1193.15 131.639Z" fill="#BDDFF0"/>
<path d="M1630.45 59.2817C1629.41 59.2817 1628.55 60.1408 1628.55 61.1888V91.7091C1628.55 92.7571 1629.41 93.6162 1630.45 93.6162C1631.5 93.6162 1632.36 92.7571 1632.36 91.7091V61.1888C1632.36 60.1408 1631.5 59.2817 1630.45 59.2817Z" fill="#BDDFF0"/>
<path d="M1647.63 76.4491C1647.63 75.4011 1646.77 74.542 1645.72 74.542H1615.19C1614.14 74.542 1613.28 75.4011 1613.28 76.4491C1613.28 77.497 1614.14 78.3561 1615.19 78.3561H1645.72C1646.77 78.3561 1647.63 77.497 1647.63 76.4491Z" fill="#BDDFF0"/>
<path d="M1746.14 498.929C1744.94 498.929 1743.96 499.956 1743.96 501.21V537.719C1743.96 538.973 1744.94 540 1746.14 540C1747.34 540 1748.32 538.973 1748.32 537.719V501.21C1748.32 499.956 1747.34 498.929 1746.14 498.929Z" fill="#BDDFF0"/>
<path d="M1765.77 519.464C1765.77 518.211 1764.79 517.183 1763.59 517.183H1728.69C1727.49 517.183 1726.51 518.211 1726.51 519.464C1726.51 520.718 1727.49 521.746 1728.69 521.746H1763.59C1764.79 521.746 1765.77 520.718 1765.77 519.464Z" fill="#BDDFF0"/>
<path d="M1862.34 702.629C1861.22 702.629 1860.3 703.546 1860.3 704.665V737.237C1860.3 738.355 1861.22 739.272 1862.34 739.272C1863.46 739.272 1864.37 738.355 1864.37 737.237V704.665C1864.37 703.546 1863.46 702.629 1862.34 702.629Z" fill="#BDDFF0"/>
<path d="M1880.67 720.951C1880.67 719.832 1879.75 718.916 1878.63 718.916H1846.04C1844.92 718.916 1844.01 719.832 1844.01 720.951C1844.01 722.069 1844.92 722.986 1846.04 722.986H1878.63C1879.75 722.986 1880.67 722.069 1880.67 720.951Z" fill="#BDDFF0"/>
<path d="M1421.26 1168.77C1421.26 1168.77 1421.22 1168.77 1421.2 1168.77C1418.05 1168.61 1414.87 1168.29 1411.76 1167.82C1411.2 1167.74 1410.81 1167.2 1410.89 1166.65C1410.97 1166.1 1411.5 1165.7 1412.05 1165.78C1415.1 1166.23 1418.21 1166.55 1421.3 1166.71C1421.87 1166.73 1422.31 1167.22 1422.27 1167.8C1422.25 1168.35 1421.79 1168.77 1421.24 1168.77H1421.26ZM1430.64 1168.77C1430.09 1168.77 1429.63 1168.33 1429.61 1167.8C1429.59 1167.22 1430.03 1166.75 1430.58 1166.71C1433.67 1166.55 1436.78 1166.23 1439.83 1165.78C1440.38 1165.7 1440.92 1166.08 1441 1166.65C1441.08 1167.2 1440.7 1167.74 1440.13 1167.82C1437.02 1168.29 1433.83 1168.61 1430.68 1168.77C1430.68 1168.77 1430.64 1168.77 1430.62 1168.77H1430.64ZM1402.71 1165.96C1402.71 1165.96 1402.53 1165.96 1402.45 1165.92C1399.4 1165.13 1396.36 1164.18 1393.39 1163.09C1392.85 1162.89 1392.57 1162.29 1392.77 1161.76C1392.97 1161.23 1393.56 1160.95 1394.1 1161.15C1396.99 1162.22 1399.98 1163.15 1402.97 1163.92C1403.52 1164.06 1403.86 1164.63 1403.7 1165.17C1403.58 1165.62 1403.17 1165.94 1402.71 1165.94V1165.96ZM1449.17 1165.94C1448.72 1165.94 1448.3 1165.62 1448.18 1165.17C1448.04 1164.61 1448.38 1164.06 1448.91 1163.92C1451.9 1163.15 1454.87 1162.22 1457.76 1161.15C1458.3 1160.95 1458.89 1161.23 1459.09 1161.76C1459.29 1162.29 1459.01 1162.89 1458.48 1163.09C1455.53 1164.18 1452.48 1165.15 1449.41 1165.94C1449.33 1165.96 1449.23 1165.98 1449.15 1165.98L1449.17 1165.94ZM1385.11 1159.46C1384.95 1159.46 1384.79 1159.42 1384.66 1159.37C1381.82 1157.98 1379.03 1156.44 1376.36 1154.75C1375.89 1154.46 1375.73 1153.82 1376.02 1153.33C1376.32 1152.85 1376.96 1152.69 1377.45 1152.99C1380.06 1154.63 1382.79 1156.14 1385.57 1157.5C1386.08 1157.76 1386.28 1158.38 1386.04 1158.89C1385.86 1159.25 1385.49 1159.46 1385.11 1159.46ZM1466.75 1159.42C1466.38 1159.42 1466 1159.21 1465.82 1158.85C1465.56 1158.34 1465.78 1157.72 1466.3 1157.46C1469.07 1156.1 1471.8 1154.59 1474.41 1152.95C1474.89 1152.65 1475.52 1152.79 1475.84 1153.29C1476.13 1153.76 1476 1154.4 1475.5 1154.71C1472.83 1156.4 1470.04 1157.94 1467.21 1159.33C1467.07 1159.4 1466.91 1159.42 1466.75 1159.42ZM1369.18 1149.55C1368.96 1149.55 1368.74 1149.47 1368.54 1149.33C1366.05 1147.41 1363.63 1145.31 1361.34 1143.15C1360.92 1142.76 1360.9 1142.1 1361.3 1141.69C1361.69 1141.27 1362.35 1141.25 1362.76 1141.65C1365 1143.77 1367.37 1145.8 1369.81 1147.69C1370.26 1148.04 1370.34 1148.68 1369.99 1149.13C1369.79 1149.39 1369.47 1149.53 1369.18 1149.53V1149.55ZM1482.65 1149.49C1482.33 1149.49 1482.03 1149.35 1481.84 1149.09C1481.48 1148.64 1481.58 1148 1482.01 1147.65C1484.45 1145.75 1486.82 1143.73 1489.06 1141.59C1489.48 1141.19 1490.13 1141.21 1490.53 1141.63C1490.92 1142.04 1490.9 1142.7 1490.49 1143.09C1488.21 1145.27 1485.78 1147.35 1483.28 1149.29C1483.1 1149.43 1482.87 1149.51 1482.65 1149.51V1149.49ZM1355.58 1136.64C1355.28 1136.64 1355 1136.52 1354.8 1136.28C1352.75 1133.89 1350.78 1131.37 1348.98 1128.78C1348.67 1128.3 1348.77 1127.67 1349.24 1127.35C1349.72 1127.04 1350.35 1127.14 1350.67 1127.61C1352.43 1130.15 1354.35 1132.6 1356.37 1134.96C1356.74 1135.39 1356.68 1136.05 1356.25 1136.4C1356.05 1136.56 1355.81 1136.66 1355.58 1136.66V1136.64ZM1496.23 1136.56C1495.99 1136.56 1495.75 1136.48 1495.55 1136.3C1495.12 1135.93 1495.08 1135.27 1495.44 1134.86C1497.45 1132.52 1499.36 1130.05 1501.12 1127.51C1501.43 1127.04 1502.09 1126.94 1502.54 1127.26C1503.02 1127.57 1503.12 1128.23 1502.8 1128.68C1501 1131.27 1499.04 1133.79 1496.98 1136.18C1496.78 1136.42 1496.49 1136.54 1496.19 1136.54L1496.23 1136.56ZM1344.83 1121.26C1344.47 1121.26 1344.11 1121.06 1343.92 1120.72C1342.37 1117.97 1340.97 1115.1 1339.72 1112.21C1339.5 1111.7 1339.72 1111.08 1340.25 1110.86C1340.79 1110.65 1341.38 1110.86 1341.6 1111.4C1342.83 1114.23 1344.19 1117.02 1345.7 1119.73C1345.97 1120.23 1345.8 1120.86 1345.3 1121.14C1345.14 1121.22 1344.96 1121.28 1344.81 1121.28L1344.83 1121.26ZM1506.96 1121.18C1506.78 1121.18 1506.62 1121.14 1506.46 1121.04C1505.97 1120.76 1505.79 1120.13 1506.07 1119.63C1507.57 1116.94 1508.94 1114.13 1510.17 1111.3C1510.38 1110.78 1511 1110.53 1511.51 1110.77C1512.03 1110.98 1512.28 1111.6 1512.05 1112.11C1510.8 1115 1509.39 1117.87 1507.87 1120.64C1507.67 1120.98 1507.33 1121.18 1506.96 1121.18ZM1337.42 1104.03C1336.99 1104.03 1336.57 1103.76 1336.43 1103.32C1335.48 1100.31 1334.69 1097.22 1334.06 1094.14C1333.94 1093.58 1334.29 1093.03 1334.87 1092.93C1335.42 1092.81 1335.98 1093.17 1336.08 1093.74C1336.69 1096.77 1337.48 1099.78 1338.41 1102.73C1338.59 1103.26 1338.27 1103.86 1337.74 1104.01C1337.64 1104.05 1337.54 1104.05 1337.42 1104.05V1104.03ZM1514.36 1103.94C1514.26 1103.94 1514.16 1103.94 1514.05 1103.9C1513.51 1103.72 1513.19 1103.14 1513.37 1102.61C1514.3 1099.66 1515.07 1096.65 1515.69 1093.62C1515.81 1093.07 1516.34 1092.71 1516.9 1092.81C1517.45 1092.93 1517.81 1093.46 1517.71 1094.02C1517.07 1097.11 1516.28 1100.19 1515.33 1103.2C1515.19 1103.64 1514.8 1103.92 1514.34 1103.92L1514.36 1103.94ZM1333.64 1085.66C1333.13 1085.66 1332.67 1085.27 1332.61 1084.73C1332.29 1081.61 1332.14 1078.42 1332.14 1075.25C1332.14 1074.68 1332.59 1074.22 1333.17 1074.22C1333.74 1074.22 1334.2 1074.68 1334.2 1075.25C1334.2 1078.34 1334.35 1081.47 1334.67 1084.52C1334.73 1085.09 1334.31 1085.58 1333.74 1085.64C1333.7 1085.64 1333.66 1085.64 1333.64 1085.64V1085.66ZM1518.12 1085.56C1518.12 1085.56 1518.06 1085.56 1518.02 1085.56C1517.45 1085.51 1517.05 1085.01 1517.09 1084.44C1517.41 1081.37 1517.55 1078.26 1517.55 1075.17V1074.97C1517.55 1074.4 1518 1073.94 1518.58 1073.94C1519.15 1073.94 1519.61 1074.4 1519.61 1074.97V1075.19C1519.61 1078.36 1519.45 1081.55 1519.13 1084.67C1519.07 1085.21 1518.64 1085.6 1518.1 1085.6L1518.12 1085.56ZM1333.62 1066.92C1333.62 1066.92 1333.56 1066.92 1333.52 1066.92C1332.95 1066.86 1332.55 1066.36 1332.59 1065.79C1332.91 1062.64 1333.38 1059.49 1334 1056.4C1334.12 1055.85 1334.65 1055.49 1335.2 1055.59C1335.76 1055.71 1336.12 1056.25 1336.02 1056.8C1335.4 1059.81 1334.95 1062.9 1334.63 1065.99C1334.57 1066.52 1334.14 1066.92 1333.6 1066.92H1333.62ZM1518.1 1066.6C1517.59 1066.6 1517.13 1066.2 1517.07 1065.67C1516.76 1062.6 1516.28 1059.51 1515.67 1056.5C1515.55 1055.95 1515.91 1055.4 1516.46 1055.3C1517.01 1055.18 1517.57 1055.53 1517.67 1056.09C1518.3 1059.18 1518.8 1062.32 1519.11 1065.47C1519.17 1066.05 1518.76 1066.54 1518.2 1066.6C1518.16 1066.6 1518.12 1066.6 1518.1 1066.6ZM1337.36 1048.53C1337.26 1048.53 1337.16 1048.53 1337.05 1048.49C1336.51 1048.31 1336.2 1047.73 1336.37 1047.2C1337.3 1044.19 1338.41 1041.2 1339.66 1038.29C1339.88 1037.78 1340.49 1037.52 1341.01 1037.76C1341.52 1037.97 1341.78 1038.59 1341.54 1039.1C1340.33 1041.93 1339.24 1044.86 1338.33 1047.81C1338.19 1048.25 1337.8 1048.55 1337.34 1048.55L1337.36 1048.53ZM1514.3 1048.23C1513.87 1048.23 1513.45 1047.95 1513.31 1047.52C1512.38 1044.57 1511.29 1041.66 1510.07 1038.83C1509.85 1038.31 1510.07 1037.7 1510.6 1037.48C1511.11 1037.26 1511.73 1037.48 1511.95 1038.01C1513.19 1040.9 1514.32 1043.91 1515.27 1046.9C1515.45 1047.44 1515.13 1048.03 1514.6 1048.19C1514.5 1048.23 1514.38 1048.23 1514.28 1048.23H1514.3ZM1344.75 1031.28C1344.57 1031.28 1344.41 1031.24 1344.25 1031.14C1343.76 1030.87 1343.58 1030.23 1343.86 1029.74C1345.38 1026.99 1347.08 1024.28 1348.88 1021.68C1349.2 1021.21 1349.85 1021.11 1350.31 1021.42C1350.79 1021.74 1350.88 1022.39 1350.57 1022.85C1348.81 1025.38 1347.16 1028.04 1345.66 1030.73C1345.48 1031.07 1345.12 1031.26 1344.75 1031.26V1031.28ZM1506.88 1031.03C1506.52 1031.03 1506.17 1030.83 1505.99 1030.49C1504.48 1027.8 1502.82 1025.15 1501.06 1022.63C1500.74 1022.16 1500.84 1021.52 1501.32 1021.21C1501.79 1020.89 1502.42 1020.99 1502.74 1021.46C1504.54 1024.06 1506.24 1026.75 1507.79 1029.5C1508.07 1030 1507.89 1030.63 1507.39 1030.91C1507.23 1030.99 1507.06 1031.05 1506.9 1031.05L1506.88 1031.03ZM1355.46 1015.88C1355.22 1015.88 1354.98 1015.8 1354.78 1015.62C1354.35 1015.25 1354.31 1014.59 1354.66 1014.18C1356.72 1011.78 1358.92 1009.47 1361.2 1007.29C1361.61 1006.89 1362.27 1006.91 1362.66 1007.33C1363.06 1007.75 1363.04 1008.4 1362.62 1008.79C1360.39 1010.93 1358.25 1013.19 1356.23 1015.53C1356.03 1015.76 1355.73 1015.88 1355.44 1015.88H1355.46ZM1496.13 1015.64C1495.83 1015.64 1495.56 1015.53 1495.36 1015.29C1493.34 1012.95 1491.18 1010.7 1488.94 1008.58C1488.53 1008.18 1488.51 1007.53 1488.9 1007.11C1489.3 1006.7 1489.95 1006.68 1490.37 1007.07C1492.67 1009.25 1494.86 1011.55 1496.92 1013.94C1497.3 1014.38 1497.24 1015.03 1496.82 1015.39C1496.62 1015.55 1496.39 1015.64 1496.15 1015.64H1496.13ZM1369.04 1002.93C1368.72 1002.93 1368.42 1002.8 1368.23 1002.54C1367.87 1002.08 1367.95 1001.45 1368.4 1001.09C1370.9 999.154 1373.51 997.333 1376.18 995.65C1376.66 995.353 1377.29 995.491 1377.61 995.967C1377.91 996.442 1377.77 997.075 1377.29 997.392C1374.68 999.035 1372.13 1000.82 1369.69 1002.72C1369.51 1002.86 1369.27 1002.93 1369.06 1002.93H1369.04ZM1482.51 1002.76C1482.29 1002.76 1482.07 1002.68 1481.88 1002.54C1479.44 1000.66 1476.87 998.877 1474.25 997.234C1473.78 996.937 1473.62 996.303 1473.92 995.808C1474.21 995.333 1474.85 995.175 1475.34 995.472C1478.02 997.135 1480.65 998.956 1483.14 1000.9C1483.6 1001.25 1483.68 1001.89 1483.32 1002.34C1483.12 1002.6 1482.81 1002.74 1482.51 1002.74V1002.76ZM1384.93 992.977C1384.56 992.977 1384.18 992.76 1384 992.403C1383.75 991.889 1383.96 991.275 1384.48 991.018C1387.31 989.612 1390.24 988.365 1393.19 987.256C1393.72 987.058 1394.32 987.335 1394.51 987.87C1394.71 988.404 1394.44 988.998 1393.9 989.196C1391.01 990.265 1388.14 991.512 1385.37 992.878C1385.23 992.958 1385.07 992.977 1384.91 992.977H1384.93ZM1466.57 992.839C1466.42 992.839 1466.28 992.799 1466.12 992.74C1463.35 991.394 1460.48 990.146 1457.59 989.097C1457.05 988.899 1456.77 988.305 1456.97 987.771C1457.17 987.236 1457.76 986.959 1458.3 987.157C1461.25 988.246 1464.2 989.493 1467.03 990.899C1467.54 991.156 1467.76 991.77 1467.5 992.284C1467.33 992.641 1466.95 992.859 1466.57 992.859V992.839ZM1402.51 986.425C1402.06 986.425 1401.64 986.108 1401.52 985.653C1401.38 985.098 1401.7 984.544 1402.25 984.406C1405.3 983.614 1408.43 982.96 1411.56 982.485C1412.11 982.406 1412.65 982.782 1412.73 983.356C1412.81 983.911 1412.43 984.445 1411.86 984.524C1408.81 984.999 1405.74 985.633 1402.77 986.405C1402.69 986.425 1402.59 986.445 1402.51 986.445V986.425ZM1448.97 986.346C1448.97 986.346 1448.8 986.346 1448.72 986.306C1445.73 985.534 1442.68 984.92 1439.61 984.465C1439.06 984.386 1438.66 983.851 1438.74 983.297C1438.82 982.743 1439.35 982.347 1439.91 982.426C1443.04 982.901 1446.16 983.534 1449.21 984.307C1449.77 984.445 1450.1 984.999 1449.94 985.554C1449.83 986.009 1449.41 986.326 1448.95 986.326L1448.97 986.346ZM1421.04 983.574C1420.49 983.574 1420.05 983.139 1420.01 982.604C1419.99 982.03 1420.43 981.555 1420.98 981.515C1424.13 981.357 1427.34 981.357 1430.49 981.515C1431.06 981.535 1431.49 982.03 1431.45 982.584C1431.43 983.158 1430.94 983.594 1430.39 983.554C1427.32 983.396 1424.17 983.416 1421.1 983.554C1421.1 983.554 1421.06 983.554 1421.04 983.554V983.574Z" fill="#BDDFF0"/>
<path d="M1856.38 353.804C1856.38 353.804 1856.32 353.804 1856.28 353.804C1851.28 353.553 1846.22 353.05 1841.29 352.295C1840.4 352.169 1839.77 351.32 1839.9 350.44C1840.03 349.559 1840.88 348.93 1841.76 349.056C1846.6 349.779 1851.54 350.282 1856.44 350.534C1857.35 350.565 1858.04 351.351 1857.98 352.263C1857.95 353.144 1857.23 353.804 1856.35 353.804H1856.38ZM1871.28 353.804C1870.4 353.804 1869.68 353.112 1869.65 352.263C1869.62 351.351 1870.31 350.597 1871.19 350.534C1876.1 350.282 1881.03 349.779 1885.87 349.056C1886.76 348.93 1887.6 349.528 1887.73 350.44C1887.86 351.32 1887.26 352.169 1886.35 352.295C1881.41 353.05 1876.35 353.553 1871.35 353.804C1871.35 353.804 1871.28 353.804 1871.25 353.804H1871.28ZM1826.91 349.339C1826.91 349.339 1826.63 349.339 1826.51 349.276C1821.66 348.018 1816.82 346.509 1812.1 344.779C1811.25 344.465 1810.81 343.521 1811.13 342.672C1811.44 341.823 1812.39 341.383 1813.23 341.698C1817.83 343.396 1822.57 344.874 1827.32 346.1C1828.2 346.32 1828.74 347.232 1828.49 348.081C1828.3 348.804 1827.64 349.307 1826.91 349.307V349.339ZM1900.72 349.307C1899.99 349.307 1899.33 348.804 1899.15 348.081C1898.93 347.201 1899.46 346.32 1900.31 346.1C1905.06 344.874 1909.77 343.396 1914.37 341.698C1915.21 341.383 1916.16 341.823 1916.47 342.672C1916.79 343.521 1916.35 344.465 1915.5 344.779C1910.81 346.509 1905.97 348.05 1901.09 349.307C1900.97 349.339 1900.81 349.37 1900.69 349.37L1900.72 349.307ZM1798.96 339.025C1798.71 339.025 1798.45 338.962 1798.23 338.867C1793.74 336.666 1789.3 334.213 1785.06 331.54C1784.3 331.069 1784.05 330.062 1784.52 329.276C1785 328.522 1786 328.27 1786.79 328.742C1790.94 331.352 1795.28 333.742 1799.68 335.911C1800.5 336.32 1800.81 337.295 1800.44 338.113C1800.15 338.679 1799.56 339.025 1798.96 339.025ZM1928.64 338.962C1928.04 338.962 1927.45 338.616 1927.16 338.05C1926.75 337.232 1927.1 336.257 1927.92 335.849C1932.32 333.679 1936.66 331.289 1940.81 328.679C1941.57 328.207 1942.57 328.427 1943.08 329.213C1943.55 329.968 1943.33 330.974 1942.54 331.478C1938.3 334.15 1933.86 336.603 1929.37 338.804C1929.15 338.93 1928.89 338.962 1928.64 338.962ZM1773.64 323.27C1773.3 323.27 1772.95 323.144 1772.64 322.924C1768.68 319.874 1764.84 316.541 1761.19 313.113C1760.53 312.484 1760.5 311.446 1761.13 310.786C1761.76 310.126 1762.8 310.094 1763.46 310.723C1767.01 314.088 1770.78 317.327 1774.65 320.314C1775.37 320.88 1775.5 321.886 1774.93 322.61C1774.62 323.019 1774.12 323.239 1773.64 323.239V323.27ZM1953.89 323.176C1953.39 323.176 1952.92 322.956 1952.6 322.547C1952.04 321.824 1952.19 320.817 1952.89 320.251C1956.75 317.232 1960.53 314.025 1964.08 310.629C1964.74 310 1965.78 310.031 1966.41 310.692C1967.04 311.352 1967.01 312.39 1966.35 313.019C1962.73 316.478 1958.86 319.78 1954.9 322.861C1954.62 323.081 1954.24 323.207 1953.89 323.207V323.176ZM1752.04 302.767C1751.57 302.767 1751.13 302.579 1750.81 302.201C1747.54 298.396 1744.43 294.403 1741.57 290.283C1741.07 289.528 1741.22 288.522 1741.98 288.019C1742.73 287.516 1743.74 287.673 1744.24 288.428C1747.04 292.453 1750.09 296.352 1753.3 300.094C1753.9 300.786 1753.8 301.824 1753.11 302.39C1752.8 302.641 1752.42 302.799 1752.04 302.799V302.767ZM1975.47 302.641C1975.09 302.641 1974.71 302.516 1974.4 302.233C1973.7 301.635 1973.64 300.597 1974.21 299.937C1977.41 296.226 1980.43 292.296 1983.23 288.271C1983.74 287.516 1984.77 287.359 1985.5 287.862C1986.25 288.365 1986.41 289.403 1985.91 290.126C1983.04 294.245 1979.93 298.239 1976.66 302.044C1976.35 302.421 1975.87 302.61 1975.4 302.61L1975.47 302.641ZM1734.97 278.334C1734.4 278.334 1733.83 278.019 1733.52 277.485C1731.07 273.114 1728.83 268.554 1726.85 263.963C1726.51 263.145 1726.85 262.17 1727.7 261.824C1728.55 261.478 1729.49 261.824 1729.84 262.673C1731.79 267.17 1733.96 271.604 1736.35 275.912C1736.79 276.698 1736.51 277.705 1735.72 278.145C1735.47 278.271 1735.19 278.365 1734.93 278.365L1734.97 278.334ZM1992.51 278.208C1992.23 278.208 1991.97 278.145 1991.72 277.988C1990.94 277.547 1990.65 276.541 1991.09 275.755C1993.48 271.478 1995.65 267.013 1997.6 262.516C1997.95 261.699 1998.92 261.29 1999.74 261.667C2000.56 262.013 2000.97 262.988 2000.59 263.806C1998.61 268.397 1996.38 272.956 1993.96 277.359C1993.64 277.893 1993.11 278.208 1992.51 278.208ZM1723.2 250.976C1722.51 250.976 1721.85 250.535 1721.63 249.843C1720.12 245.064 1718.87 240.158 1717.86 235.253C1717.67 234.372 1718.24 233.491 1719.15 233.334C1720.03 233.146 1720.91 233.712 1721.07 234.624C1722.04 239.435 1723.3 244.215 1724.78 248.9C1725.06 249.749 1724.56 250.693 1723.71 250.944C1723.55 251.007 1723.39 251.007 1723.2 251.007V250.976ZM2004.27 250.818C2004.11 250.818 2003.96 250.818 2003.77 250.755C2002.92 250.472 2002.41 249.56 2002.7 248.711C2004.17 244.026 2005.4 239.246 2006.38 234.435C2006.57 233.554 2007.41 232.988 2008.3 233.146C2009.18 233.334 2009.74 234.183 2009.58 235.064C2008.58 239.969 2007.32 244.875 2005.81 249.655C2005.59 250.347 2004.96 250.787 2004.24 250.787L2004.27 250.818ZM1717.2 221.794C1716.38 221.794 1715.66 221.165 1715.56 220.316C1715.06 215.347 1714.81 210.284 1714.81 205.253C1714.81 204.341 1715.53 203.618 1716.44 203.618C1717.36 203.618 1718.08 204.341 1718.08 205.253C1718.08 210.159 1718.33 215.127 1718.83 219.97C1718.93 220.882 1718.27 221.668 1717.36 221.762C1717.29 221.762 1717.23 221.762 1717.2 221.762V221.794ZM2010.25 221.636C2010.25 221.636 2010.15 221.636 2010.09 221.636C2009.18 221.542 2008.55 220.756 2008.61 219.844C2009.11 214.97 2009.33 210.033 2009.33 205.127V204.813C2009.33 203.901 2010.06 203.177 2010.97 203.177C2011.88 203.177 2012.6 203.901 2012.6 204.813V205.159C2012.6 210.19 2012.35 215.253 2011.85 220.221C2011.75 221.07 2011.06 221.699 2010.21 221.699L2010.25 221.636ZM1717.17 192.014C1717.17 192.014 1717.07 192.014 1717.01 192.014C1716.1 191.92 1715.47 191.134 1715.53 190.222C1716.03 185.222 1716.79 180.222 1717.76 175.316C1717.95 174.436 1718.8 173.87 1719.68 174.027C1720.56 174.216 1721.13 175.065 1720.97 175.945C1720 180.725 1719.27 185.631 1718.77 190.536C1718.68 191.385 1717.98 192.014 1717.13 192.014H1717.17ZM2010.21 191.511C2009.4 191.511 2008.67 190.882 2008.58 190.033C2008.07 185.159 2007.32 180.253 2006.35 175.473C2006.16 174.593 2006.72 173.713 2007.6 173.555C2008.48 173.367 2009.36 173.933 2009.52 174.813C2010.53 179.719 2011.31 184.719 2011.82 189.719C2011.91 190.63 2011.25 191.417 2010.37 191.511C2010.31 191.511 2010.24 191.511 2010.21 191.511ZM1723.11 162.801C1722.95 162.801 1722.8 162.801 1722.61 162.738C1721.76 162.455 1721.26 161.543 1721.54 160.694C1723.02 155.914 1724.78 151.166 1726.76 146.543C1727.1 145.726 1728.08 145.317 1728.9 145.694C1729.71 146.04 1730.12 147.015 1729.75 147.832C1727.83 152.329 1726.1 156.983 1724.65 161.669C1724.43 162.36 1723.8 162.832 1723.08 162.832L1723.11 162.801ZM2004.18 162.329C2003.48 162.329 2002.82 161.889 2002.6 161.197C2001.13 156.511 1999.4 151.889 1997.45 147.392C1997.1 146.575 1997.45 145.6 1998.29 145.254C1999.11 144.908 2000.09 145.254 2000.43 146.103C2002.41 150.694 2004.21 155.474 2005.72 160.222C2006 161.071 2005.5 162.015 2004.65 162.266C2004.49 162.329 2004.3 162.329 2004.14 162.329H2004.18ZM1734.84 135.411C1734.56 135.411 1734.31 135.348 1734.05 135.191C1733.27 134.751 1732.98 133.745 1733.42 132.958C1735.85 128.587 1738.55 124.279 1741.41 120.16C1741.91 119.405 1742.95 119.248 1743.68 119.751C1744.43 120.254 1744.59 121.292 1744.09 122.015C1741.29 126.04 1738.68 130.254 1736.29 134.531C1736 135.065 1735.44 135.38 1734.84 135.38V135.411ZM1992.38 135.002C1991.82 135.002 1991.25 134.688 1990.97 134.153C1988.58 129.877 1985.94 125.663 1983.14 121.669C1982.64 120.915 1982.79 119.908 1983.55 119.405C1984.3 118.902 1985.31 119.059 1985.81 119.814C1988.67 123.933 1991.38 128.21 1993.83 132.581C1994.27 133.367 1993.99 134.373 1993.2 134.814C1992.95 134.939 1992.67 135.034 1992.41 135.034L1992.38 135.002ZM1751.85 110.946C1751.47 110.946 1751.1 110.82 1750.78 110.537C1750.09 109.94 1750.03 108.902 1750.59 108.242C1753.86 104.437 1757.36 100.758 1760.97 97.2985C1761.63 96.6696 1762.67 96.701 1763.3 97.3614C1763.93 98.0218 1763.9 99.0595 1763.24 99.6884C1759.68 103.085 1756.29 106.669 1753.08 110.38C1752.76 110.757 1752.29 110.946 1751.82 110.946H1751.85ZM1975.31 110.569C1974.84 110.569 1974.4 110.38 1974.08 110.003C1970.87 106.292 1967.45 102.707 1963.89 99.3425C1963.23 98.7136 1963.2 97.6759 1963.83 97.0155C1964.46 96.3552 1965.5 96.3237 1966.16 96.9526C1969.81 100.412 1973.29 104.059 1976.57 107.864C1977.16 108.556 1977.07 109.594 1976.41 110.16C1976.09 110.412 1975.72 110.569 1975.34 110.569H1975.31ZM1773.42 90.3804C1772.92 90.3804 1772.45 90.1602 1772.13 89.7514C1771.57 89.0281 1771.69 88.0219 1772.42 87.4559C1776.38 84.3742 1780.53 81.4811 1784.78 78.8082C1785.53 78.3365 1786.54 78.5567 1787.04 79.3114C1787.51 80.0661 1787.29 81.0724 1786.54 81.5755C1782.39 84.1855 1778.33 87.0157 1774.46 90.0345C1774.18 90.2546 1773.8 90.3804 1773.46 90.3804H1773.42ZM1953.67 90.0974C1953.33 90.0974 1952.98 89.9715 1952.67 89.7514C1948.8 86.764 1944.71 83.9339 1940.56 81.3239C1939.81 80.8522 1939.55 79.8459 1940.03 79.0597C1940.5 78.305 1941.5 78.0535 1942.29 78.5252C1946.53 81.1667 1950.72 84.0597 1954.68 87.1414C1955.4 87.7074 1955.53 88.7138 1954.96 89.437C1954.65 89.8458 1954.14 90.0659 1953.67 90.0659V90.0974ZM1798.68 74.563C1798.08 74.563 1797.48 74.217 1797.2 73.651C1796.79 72.8334 1797.13 71.8586 1797.95 71.4498C1802.45 69.2172 1807.1 67.236 1811.79 65.475C1812.64 65.1606 1813.58 65.6009 1813.89 66.4499C1814.21 67.299 1813.77 68.2423 1812.92 68.5568C1808.33 70.2549 1803.77 72.236 1799.37 74.4058C1799.15 74.5316 1798.9 74.563 1798.64 74.563H1798.68ZM1928.36 74.3428C1928.11 74.3428 1927.89 74.28 1927.64 74.1856C1923.23 72.0473 1918.67 70.0662 1914.08 68.3996C1913.23 68.0851 1912.79 67.1417 1913.11 66.2926C1913.42 65.4436 1914.37 65.0034 1915.21 65.3178C1919.9 67.0474 1924.59 69.0285 1929.08 71.2612C1929.9 71.67 1930.25 72.6447 1929.84 73.4623C1929.55 74.0284 1928.96 74.3743 1928.36 74.3743V74.3428ZM1826.6 64.1543C1825.88 64.1543 1825.22 63.6511 1825.03 62.9279C1824.81 62.0474 1825.31 61.167 1826.19 60.9469C1831.03 59.689 1836 58.6513 1840.97 57.8966C1841.85 57.7708 1842.7 58.3683 1842.83 59.2802C1842.95 60.1607 1842.35 61.0098 1841.44 61.1355C1836.6 61.8902 1831.73 62.8965 1827.01 64.1229C1826.88 64.1543 1826.72 64.1858 1826.6 64.1858V64.1543ZM1900.4 64.0285C1900.4 64.0285 1900.12 64.0286 1900 63.9657C1895.25 62.7393 1890.4 61.7645 1885.53 61.0412C1884.65 60.9154 1884.02 60.0663 1884.15 59.1858C1884.27 58.3053 1885.12 57.6765 1886 57.8023C1890.97 58.557 1895.94 59.5632 1900.78 60.7896C1901.66 61.0097 1902.2 61.8902 1901.94 62.7707C1901.75 63.494 1901.09 63.9971 1900.37 63.9971L1900.4 64.0285ZM1856.03 59.6261C1855.15 59.6261 1854.46 58.9343 1854.4 58.0853C1854.37 57.1733 1855.06 56.4186 1855.94 56.3557C1860.94 56.1041 1866.03 56.1041 1871.03 56.3557C1871.95 56.3871 1872.64 57.1733 1872.57 58.0538C1872.54 58.9657 1871.76 59.6575 1870.88 59.5946C1866 59.343 1861 59.3745 1856.13 59.5946C1856.13 59.5946 1856.06 59.5946 1856.03 59.5946V59.6261Z" fill="#BDDFF0"/>
</g>
<defs>
<clipPath id="clip0_2922_5057">
<rect width="1920" height="1080" fill="white"/>
</clipPath>
</defs>
</svg>
