<svg width="31" height="31" viewBox="0 0 31 31" fill="none" xmlns="http://www.w3.org/2000/svg">
<path d="M27.4025 11.7153L15.8009 3.27783C15.6411 3.16077 15.4482 3.09766 15.2501 3.09766C15.052 3.09766 14.8591 3.16077 14.6993 3.27783L3.09776 11.7153C2.93755 11.8318 2.81836 11.9961 2.75731 12.1845C2.69625 12.3729 2.69646 12.5759 2.75792 12.7642L7.19054 26.4165C7.25172 26.6046 7.37082 26.7685 7.53078 26.8848C7.69075 27.0011 7.88339 27.0638 8.08116 27.064H22.422C22.8292 27.064 23.1866 26.8032 23.3126 26.4165L27.7452 12.7642C27.8683 12.3774 27.7306 11.9556 27.4025 11.7153ZM24.8185 12.2983L21.9327 13.2358L16.0733 8.99658V5.93799L24.8185 12.2983ZM13.9025 16.6987L11.2921 20.2817L9.67491 15.3247L13.9025 16.6987ZM10.4952 13.8628L14.4298 11.0181V15.1431L10.4952 13.8628ZM15.2501 17.6362L18.0011 21.4126H12.4991L15.2501 17.6362ZM16.0733 11.0181L20.005 13.8628L16.0733 15.1401V11.0181ZM16.5978 16.6987L20.8253 15.3247L19.2081 20.2817L16.5978 16.6987ZM14.4298 5.93799V8.99658L8.56749 13.2358L5.68175 12.2983L14.4298 5.93799ZM5.21007 13.8745L7.74425 14.6978L10.0997 21.9165L8.52355 24.0815L5.21007 13.8745ZM9.83312 25.0718L11.3067 23.0503H19.1964L20.67 25.0718H9.83312ZM21.9767 24.0815L20.4005 21.9165L22.756 14.6978L25.2901 13.8745L21.9767 24.0815Z" fill="#154763"/>
</svg>
