<svg xmlns="http://www.w3.org/2000/svg" width="32" height="29.057" viewBox="0 0 32 29.057"><defs><style>.a{fill:#fff;}</style></defs><g transform="translate(0)"><path class="a" d="M5.215,7.572c0-.2-.21-.168-.33-.208-.44-.163-.891-.3-1.336-.46-.135-.054-.305-.074-.39-.252.13-.124.27-.064.405-.045l2.282.415c.57.109,1.151.193,1.711.336.28.074.54.247.836.3a11.755,11.755,0,0,1,1.691.495,6.014,6.014,0,0,1,2.2,1.37,12.008,12.008,0,0,0,1.116.989,3.075,3.075,0,0,1,1,1.647c.025.084,0,.2.035.242.14.109.14.307.29.411.125-.059.155-.2.24-.292a1.109,1.109,0,0,1,1.661-.183,2.243,2.243,0,0,1,.26.228c.29.3.3.3.435-.109a4.126,4.126,0,0,1,.645-1.291c.18-.228.33-.495.655-.584.1,0,.17-.143.24-.232a7.262,7.262,0,0,1,4.028-2.359,4.072,4.072,0,0,0,1.226-.371,2.758,2.758,0,0,1,.831-.2l3.167-.569a.84.84,0,0,1,.455,0c.04.134-.065.143-.135.178a13.306,13.306,0,0,1-1.286.495,3.224,3.224,0,0,0-.37.119c-.105.049-.32,0-.245.257s.235.1.34.054a.328.328,0,0,1,.263-.036.324.324,0,0,1,.2.17,4.3,4.3,0,0,1,.856,1.88.416.416,0,0,0,.29.376,1.78,1.78,0,0,1,.31.148c.33.2.35.267.285.653a2.235,2.235,0,0,0,0,.549,25.28,25.28,0,0,0,1.736,7.365c.355.91.721,1.815,1,2.755a3.089,3.089,0,0,1-.941,3.359c-.075.064-.155.287-.31.059-.035-.049-.1.025-.135.064a9.806,9.806,0,0,1-2.922,2.053c-.155.035-.2-.045-.18-.178h0a1.118,1.118,0,0,0,.18-.6h0v.049l-.175.252a4.279,4.279,0,0,1-2.462,1.677,19.979,19.979,0,0,1,.43-2.542.151.151,0,0,0-.17.084,8.257,8.257,0,0,1-3.062,2.968,38.6,38.6,0,0,1-3.6,1.8c-.736.346-1.466.7-2.172,1.108a.505.505,0,0,1-.5.045c-1.461-.643-2.957-1.217-4.388-1.924A12.447,12.447,0,0,1,8.387,28.1a7.633,7.633,0,0,1-1.5-1.855c-.045-.084-.06-.193-.235-.252A24.141,24.141,0,0,1,7.1,28.55a6.545,6.545,0,0,1-3-2.186l-.435-.618h0a1.908,1.908,0,0,0,.36.816l.5.757c-.105.089-.18,0-.255-.049a7.52,7.52,0,0,1-1.851-1.133,2.819,2.819,0,0,1-.24-.247c-.06-.069-.1-.178-.23-.069s-.13,0-.18-.059A4.881,4.881,0,0,1,.367,24.3a2.938,2.938,0,0,1-.27-2.26,16.284,16.284,0,0,1,.821-2.389,30.96,30.96,0,0,0,1.5-4.64,23.655,23.655,0,0,0,.5-3.4,1.072,1.072,0,0,0-.045-.549.3.3,0,0,1-.047-.253.3.3,0,0,1,.167-.2,1.7,1.7,0,0,0,.781-1.187,4.547,4.547,0,0,1,.861-1.647.32.32,0,0,1,.2-.148.323.323,0,0,1,.244.034C5.16,7.7,5.22,7.681,5.215,7.572ZM27.231,12.8a.09.09,0,0,0-.105.064.1.1,0,0,0-.06.035,1.117,1.117,0,0,0-.19.089c-1.736,1.152-3.5,2.211-5.314,3.274-1.556.915-3.092,1.875-4.728,2.661a.864.864,0,0,1-.856,0c-.215-.114-.44-.2-.66-.312-2.752-1.336-5.394-2.869-8.071-4.348-.13-.069-.245-.2-.42-.173a13.421,13.421,0,0,0-2.432-1.449,4.008,4.008,0,0,1-.56-.361,1.9,1.9,0,0,0-.44-.608,1.374,1.374,0,0,0,.345.7,1.227,1.227,0,0,0,.255.356A6.038,6.038,0,0,1,5.6,15.3a.8.8,0,0,0,.065.2,21.336,21.336,0,0,1,1.086,5.837c.06,1.034.18,2.058.305,3.087a4.106,4.106,0,0,0,1.416,2.641,7.7,7.7,0,0,0,2.867,1.593,15.216,15.216,0,0,0,8.976.163,7.8,7.8,0,0,0,3-1.558,4.481,4.481,0,0,0,1.6-2.968c.15-1.237.225-2.473.335-3.725A20.887,20.887,0,0,1,26.555,14.8a3.661,3.661,0,0,1,.776-1.306,6.784,6.784,0,0,0,.5-.623.168.168,0,0,0,.115-.153l.06-.079a1.3,1.3,0,0,0,.475-.905,2.386,2.386,0,0,1-1.071.989h0a.145.145,0,0,0-.155.1Zm-8.506-1.281c-.06.143.04.213.135.287a3.023,3.023,0,0,0,1.081.821,4.669,4.669,0,0,0,4.5-.267,3.8,3.8,0,0,0,1.876-2.6.142.142,0,0,0,.04-.183,2.935,2.935,0,0,0,.085-1.088,1.762,1.762,0,0,0-.1-.579.306.306,0,0,0-.132-.235.313.313,0,0,0-.268-.042c-.34.049-.68.094-1,.153-.5.084-.475.089-.255.524a.737.737,0,0,0,.04.292A2.754,2.754,0,0,1,23,11.762a2.888,2.888,0,0,1-.7.193,2.54,2.54,0,0,1-2.747-1.212,1.8,1.8,0,0,0-.26-.6c-.185.2-.345.386-.53.554-.26.232-.345.312-.055.732a.2.2,0,0,0,.015.089ZM7.111,8.052a.629.629,0,0,0,.14-.381,6.473,6.473,0,0,0-1-.223c-.816-.109-.881-.059-.936.782a4.142,4.142,0,0,0,1.5,3.581,4.609,4.609,0,0,0,3.412,1.019,3.761,3.761,0,0,0,2.622-1.207c.12-.079.23-.168.16-.341l.145-.341a.137.137,0,0,0,0-.188,4.377,4.377,0,0,0-.731-.786.492.492,0,0,0-.16.4,2.222,2.222,0,0,1-1.746,1.345,3.139,3.139,0,0,1-1.966-.262A2.567,2.567,0,0,1,7,9.145a5,5,0,0,1,.115-1.118Zm11.583,3.957c-.035-.045-.055-.148-.125-.084s0,.114.045.163c.13.415.455.742.66,1.227a7.936,7.936,0,0,1-1.256-1.484c-.27.648-.761,1.128-.715,1.835a1.18,1.18,0,0,1-.045.292,15.1,15.1,0,0,1-.931,2.419c-.125.3-.31.3-.5.03a2.641,2.641,0,0,1-.14-.262,17.253,17.253,0,0,1-1-2.443A11.927,11.927,0,0,0,14,11.955c-.07-.134-.115-.292-.3-.331a7.829,7.829,0,0,1-1.151,1.345.2.2,0,0,0,0,.035c.055,0-.065.025-.04,0l.545-.989c.16-.119.16-.3.24-.544a1.158,1.158,0,0,0-.34.361A4.4,4.4,0,0,1,9.7,13,4.564,4.564,0,0,1,5.25,9.59a4.2,4.2,0,0,1-.125-1.484c0-.094.045-.2-.08-.252s-.215.025-.285.124l-.075.1a5.071,5.071,0,0,0-.716,1.444,3.5,3.5,0,0,0,.025,2.236,1.1,1.1,0,0,0,.5.633c1.076.6,2.136,1.222,3.2,1.835,2.6,1.484,5.214,2.923,7.9,4.239.9.44.715.415,1.586,0,1.2-.6,2.352-1.3,3.5-1.979,2.247-1.291,4.438-2.666,6.63-4.031a.9.9,0,0,0,.415-.411,3.734,3.734,0,0,0-.51-3.779.277.277,0,0,0-.335-.1c-.23.054-.225.193-.22.381a4.369,4.369,0,0,1-1.811,3.8,4.89,4.89,0,0,1-6.159-.381Zm5.7-3.245a.4.4,0,0,0-.131-.283.413.413,0,0,0-.295-.108.4.4,0,1,0,0,.8.418.418,0,0,0,.3-.117A.408.408,0,0,0,24.4,8.764ZM8.162,8.522a.379.379,0,0,0-.128-.281.388.388,0,0,0-.3-.095.393.393,0,0,0-.37.391c0,.208.205.495.35.47a.532.532,0,0,0,.445-.47ZM15,12.9a1.5,1.5,0,0,0,.876-.6C15.367,12.227,15.182,12.563,15,12.9Z" transform="translate(0.017 -2.996)"/><path class="a" d="M9,2.311c.652-.224,1.289-.453,1.931-.665q1.791-.589,3.615-1.009A23.763,23.763,0,0,1,21.3.048,24.24,24.24,0,0,1,27.26,1.215c1.212.382,2.413.829,3.582,1.325l.309.142c0,.1-.087.114-.14.125a45.111,45.111,0,0,0-7.047,2.8,25.4,25.4,0,0,1-2.621,1.014A3.781,3.781,0,0,1,18.654,6.5c-1.134-.453-2.245-.954-3.379-1.472-1.68-.78-3.35-1.636-5.083-2.257-.3-.114-.608-.2-.912-.3C9.193,2.447,9.087,2.453,9,2.311Z" transform="translate(-4.084 -0.011)"/><path class="a" d="M7.32,45.29l.474.682-.076.218a2.115,2.115,0,0,1-.393-.9Z" transform="translate(-3.32 -22.694)"/><path class="a" d="M54.836,47a1.238,1.238,0,0,1-.2.643v-.365Z" transform="translate(-27.709 -23.986)"/><path class="a" d="M54.522,48.22c0,.147,0,.234.2.2-.076.1-.218.2-.294.131S54.424,48.313,54.522,48.22Z" transform="translate(-27.597 -24.541)"/><path class="a" d="M35.715,19.35a.605.605,0,0,1-.174.371c-1.09,1.33-2.11,2.666-3.179,3.985-.316.4-.676.769-1.02,1.145-.78.856-1.51,1.75-2.35,2.546a11.1,11.1,0,0,1-2.726,1.979,4.492,4.492,0,0,1-3.969.038,9.443,9.443,0,0,1-2.257-1.467,29.048,29.048,0,0,1-2.35-2.284q-1.314-1.4-2.5-2.906c-.48-.616-.976-1.216-1.445-1.843-.055-.076-.125-.136-.114-.245.191-.027.316.114.458.191,2.917,1.636,5.8,3.32,8.794,4.792.24.12.485.218.72.343a.932.932,0,0,0,.932,0c1.8-.872,3.473-1.93,5.185-2.939,1.946-1.172,3.9-2.339,5.79-3.609a1.21,1.21,0,0,1,.207-.1Z" transform="translate(-7.858 -10.104)"/><path class="a" d="M51.125,9.581c-.038,0-.109-.033-.114-.065-.109-.48-.48-.447-.84-.414a4.116,4.116,0,0,1-.736.093c-.131,0-.153.142-.245.191-.24-.48-.245-.485.278-.578.371-.065.741-.114,1.09-.169a.338.338,0,0,1,.436.305A1.963,1.963,0,0,1,51.125,9.581Z" transform="translate(-24.631 -3.927)"/><path class="a" d="M12.6,8.921a.48.48,0,0,0-.545-.289,2.3,2.3,0,0,1-.512,0c-.376-.038-.7,0-.812.453a.11.11,0,0,0-.082.038c.06-.927.131-.981,1.02-.861a6.984,6.984,0,0,1,1.09.245A.7.7,0,0,1,12.6,8.921Z" transform="translate(-5.344 -3.742)"/><path class="a" d="M48.048,10.641a.453.453,0,0,1-.436.453.442.442,0,1,1,0-.883A.447.447,0,0,1,48.048,10.641Z" transform="translate(-23.615 -5.12)"/><path class="a" d="M15.607,10.2a.583.583,0,0,1-.485.545c-.158,0-.376-.289-.382-.518a.431.431,0,0,1,.4-.431.42.42,0,0,1,.463.4Z" transform="translate(-7.373 -4.461)"/><path class="a" d="M38.166,14.445a.867.867,0,0,0-.921.752c-.316-.463-.224-.545.06-.807.2-.185.376-.393.578-.611A1.99,1.99,0,0,1,38.166,14.445Z" transform="translate(-18.557 -6.919)"/><path class="a" d="M25.558,14.44a.878.878,0,0,1-.578-.545c-.1-.278-.224-.158-.371-.109a.545.545,0,0,1,.174-.436,4.8,4.8,0,0,1,.8.9.153.153,0,0,1-.022.191Z" transform="translate(-12.319 -6.697)"/><path class="a" d="M55.45,17.975c-.229-.065-.431.12-.66.065a2.612,2.612,0,0,0,1.167-1.09A1.434,1.434,0,0,1,55.45,17.975Z" transform="translate(-27.778 -8.502)"/><path class="a" d="M30,18.81c.224-.376.425-.741.954-.66a1.636,1.636,0,0,1-.954.66Z" transform="translate(-15.019 -9.086)"/><path class="a" d="M7.28,17.541l-.1.1A1.521,1.521,0,0,1,6.8,16.87,2.094,2.094,0,0,1,7.28,17.541Z" transform="translate(-3.083 -8.453)"/><path class="a" d="M25.989,17.1c0-.087,0-.169-.109-.2a1.27,1.27,0,0,1,.371-.4C26.164,16.773,26.164,16.969,25.989,17.1Z" transform="translate(-12.935 -8.264)"/><path class="a" d="M25.731,16.416c0-.147-.076-.343.174-.376C25.982,16.231,25.873,16.329,25.731,16.416Z" transform="translate(-12.849 -8.028)"/><path class="a" d="M37.423,16.56c.213.027.18.169.147.316C37.467,16.8,37.358,16.718,37.423,16.56Z" transform="translate(-18.689 -8.287)"/><path class="a" d="M52.53,12.832c-.2-.114-.082-.158.044-.2a.158.158,0,0,1-.044.2Z" transform="translate(-26.701 -6.32)"/><path class="a" d="M37.157,17.47c-.055-.055-.109-.136-.049-.18s.1.044.136.093Z" transform="translate(-18.527 -8.643)"/><path class="a" d="M54.649,19a.147.147,0,0,1-.169.109A.158.158,0,0,1,54.649,19Z" transform="translate(-27.637 -9.501)"/><path class="a" d="M55.659,19.159a.158.158,0,0,1,.125-.169A.185.185,0,0,1,55.659,19.159Z" transform="translate(-28.173 -9.498)"/><path class="a" d="M54.984,46.944c.038,0,.044-.027,0-.055h0a.093.093,0,0,0,0,.055Z" transform="translate(-27.857 -23.93)"/><path class="a" d="M54.374,19.148a.093.093,0,0,1-.114.071A.1.1,0,0,1,54.374,19.148Z" transform="translate(-27.537 -9.574)"/><path class="a" d="M7.316,45.281,7.3,45.27l.011.011Z" transform="translate(-3.311 -22.625)"/><path class="a" d="M10.313,8.59c0,.12-.06.136-.153.1Z" transform="translate(-4.611 -3.912)"/><path class="a" d="M31.078,40.906c.038.1.147.1.218.164.545.436.878.311,1.439-.273.125-.131.049-.262,0-.4-.055-.224-.114-.453-.169-.682a.131.131,0,0,1,.071-.136,1.428,1.428,0,0,1,.333.48c.207.343.273.349.485,0,.1-.158.169-.333.267-.5s.055-.218.191-.234a3.541,3.541,0,0,1-.834,2.437,4.427,4.427,0,0,0-.158-.709c-.164-.049-.207.076-.278.142-.245.24-.48.491-.731.731s-.294.267-.545-.038c-.169.164-.327.327-.5.48s-.207.1-.24-.06a3.19,3.19,0,0,0-.545-.927c.224.1.4.311.687.191s.322-.213.093-.485C30.892,40.966,30.871,40.813,31.078,40.906Z" transform="translate(-15.189 -19.85)"/><path class="a" d="M26.512,38.366c-.1.4-.474.638-.643,1.09a7.671,7.671,0,0,1-.4-.976c-.164-.071-.169.185-.311.136a.5.5,0,0,1-.234-.218,5.909,5.909,0,0,1-.376-.545.812.812,0,0,1,.191-1.194c.142.055.049.153.038.229a1.636,1.636,0,0,0,.076.834c.131.382.338.436.665.2a1.014,1.014,0,0,1,.545-.262c-.038.256-.218.463-.2.714s.065.256.256.18a3.776,3.776,0,0,0,.42-.207Z" transform="translate(-12.239 -18.482)"/><path class="a" d="M31.446,41.888c-.207-.093-.185.06-.191.18a1.57,1.57,0,0,1-.365-.578.7.7,0,0,1,.556.4Z" transform="translate(-15.448 -20.77)"/><path class="a" d="M28.305,39.77h.011l-.016.011Z" transform="translate(-14.132 -19.877)"/></g></svg>