<svg xmlns="http://www.w3.org/2000/svg" width="32" height="31.996" viewBox="0 0 32 31.996"><defs><style>.a{fill:#fff;}</style></defs><g transform="translate(0 -0.031)"><g transform="translate(0 24.637)"><path class="a" d="M20.074,387.484H2.622A2.623,2.623,0,0,0,0,390.106v4.768H22.7v-4.768A2.623,2.623,0,0,0,20.074,387.484Z" transform="translate(0 -387.484)"/></g><g transform="translate(4.279 0.03)"><path class="a" d="M87.527,25.268,73.114,10.854,75.9,8.075a1.169,1.169,0,0,0,1.6-1.7l-6-6a1.166,1.166,0,0,0-1.649,1.649L69.8,1.974,62.175,9.59l.049.054a1.166,1.166,0,0,0-1.649,1.649l6,6a1.169,1.169,0,0,0,1.654-1.653l.049.049,2.784-2.779L85.469,27.321a1.454,1.454,0,0,0,2.058-2.053Z" transform="translate(-60.231 -0.03)"/></g></g></svg>