<svg xmlns="http://www.w3.org/2000/svg" width="39.969" height="14.949" viewBox="0 0 39.969 14.949"><defs><style>.a{fill:#fff;}</style></defs><g transform="translate(0 0)"><path class="a" d="M793.492,461.3c-1.981,0-3.962,0-5.943,0-.175,0-.222-.043-.219-.22q.015-1.205,0-2.411c0-.171.05-.207.212-.207q5.541.007,11.082,0a3.95,3.95,0,0,0,.944-.088.894.894,0,0,0,.778-.916c.021-.345.016-.691.015-1.036a1.137,1.137,0,0,0-1.215-1.305c-.218-.017-.436-.026-.655-.026-2.517-.007-5.033-.006-7.55-.02a5.251,5.251,0,0,1-1.7-.294,2.464,2.464,0,0,1-1.742-1.995,10.522,10.522,0,0,1,.024-3.868,2.888,2.888,0,0,1,2.529-2.43,8.621,8.621,0,0,1,1.6-.133q4.24,0,8.481,0c.2,0,.243.051.24.242q-.017,1.184,0,2.369c0,.2-.059.228-.237.227q-4.092-.009-8.184,0a3.1,3.1,0,0,0-.673.056.959.959,0,0,0-.817.8,4.609,4.609,0,0,0-.027,1.453.942.942,0,0,0,.943.909,4.889,4.889,0,0,0,.59.037q3.585,0,7.169,0a7.474,7.474,0,0,1,2.048.259,2.723,2.723,0,0,1,2.122,2.36,12.026,12.026,0,0,1-.01,3.623,2.8,2.8,0,0,1-2.357,2.392,8.417,8.417,0,0,1-1.971.211Q796.231,461.3,793.492,461.3Z" transform="translate(-769.031 -446.356)"/><path class="a" d="M667.745,461.3c-1.537,0-3.074,0-4.61,0a10.832,10.832,0,0,1-2.639-.293,3.422,3.422,0,0,1-2.733-2.993,10.651,10.651,0,0,1-.14-1.747c0-1.812,0-3.624.016-5.436a7.021,7.021,0,0,1,.219-1.609,3.332,3.332,0,0,1,2.59-2.555,11.077,11.077,0,0,1,2.87-.3q5.076,0,10.151,0c.169,0,.206.047.2.209q-.013,1.227,0,2.454c0,.177-.046.218-.221.218q-5.076-.007-10.151,0a4.814,4.814,0,0,0-.925.082,1.526,1.526,0,0,0-1.4,1.482,5.32,5.32,0,0,0-.048.653q-.006,2.411,0,4.823a3.9,3.9,0,0,0,.072.756,1.491,1.491,0,0,0,1.446,1.351,8.838,8.838,0,0,0,1.16.07q4.917,0,9.834,0c.182,0,.234.037.231.227-.012.811-.01,1.622,0,2.433,0,.162-.043.195-.2.194C671.566,461.3,669.655,461.3,667.745,461.3Z" transform="translate(-657.622 -446.359)"/><path class="a" d="M917.311,453.83q0-3.628,0-7.255c0-.181.05-.216.221-.215.966.009,1.931.007,2.9,0,.151,0,.216.019.216.2q-.009,7.277,0,14.553c0,.165-.05.194-.2.193-.98-.007-1.96-.008-2.939,0-.167,0-.191-.052-.191-.2Q917.315,457.468,917.311,453.83Z" transform="translate(-880.671 -446.359)"/></g></svg>