<svg xmlns="http://www.w3.org/2000/svg" xmlns:xlink="http://www.w3.org/1999/xlink" width="30.358" height="30.357" viewBox="0 0 30.358 30.357"><defs><style>.a{fill:#fff;}.b{fill:url(#a);}.c{fill:url(#b);}</style><linearGradient id="a" x1="-16.92" y1="8.656" x2="-16.872" y2="8.656" gradientUnits="objectBoundingBox"><stop offset="0" stop-color="#fc2a61"/><stop offset="0.382" stop-color="#fd1870"/><stop offset="1" stop-color="#ff0086"/></linearGradient><linearGradient id="b" x1="-52.295" y1="22.056" x2="-52.148" y2="22.056" xlink:href="#a"/></defs><g transform="translate(0 0)"><ellipse class="a" cx="12.499" cy="12.499" rx="12.499" ry="12.499" transform="translate(2.671 2.679)"/><path class="b" d="M635.729,744.932a16.145,16.145,0,0,0-1.642.09,15.171,15.171,0,1,0,1.642-.09Zm0,25a9.821,9.821,0,1,1,0-19.642,6.847,6.847,0,0,1,1.214.089,9.814,9.814,0,0,1-1.214,19.553Z" transform="translate(-620.549 -744.932)"/><g transform="translate(10.194 10.201)"><ellipse class="c" cx="4.978" cy="4.978" rx="4.978" ry="4.978" transform="translate(0 0)"/></g></g></svg>